User Type,Username,Date,Text
[T],Filmofiel,2011-08-03T20:03Z,"A pity only english subtitles are inclusive in this torrent, so the info isn't right, very good movie tho!"
[V],DownTYU,2011-08-03T20:12Z,Thats why I didn't selected all the langs up in there.^^
[T],Filmofiel,2011-08-03T21:17Z,"details:

Format                           : Matroska
File size                        : 4.37 GiB
Duration                         : 1h 49mn
Overall bit rate                 : 5 689 Kbps
Writing application              : x264.exe
Writing library                  : mkv2rls v1.4 (date: 2011 mar 29)

Video
ID                               : 1
Format                           : AVC
Format/Info                      : Advanced Video Codec
Format profile                   : High@L4.1
Format settings, CABAC           : Yes
Format settings, ReFrames        : 5 frames
Codec ID                         : V_MPEG4/ISO/AVC
Duration                         : 1h 49mn
Bit rate                         : 4 180 Kbps
Width                            : 1 280 pixels
Height                           : 720 pixels
Display aspect ratio             : 16:9
Frame rate                       : 23.976 fps
Color space                      : YUV
Chroma subsampling               : 4:2:0
Bit depth                        : 8 bits
Scan type                        : Progressive
Bits/(Pixel*Frame)               : 0.189
Stream size                      : 3.12 GiB (71%)
Writing library                  : x264 core 116 r2037 f8ebd4a
Encoding settings                : cabac=1 / ref=5 / deblock=1:0:0 / analyse=0x3:0x113 / me=umh / subme=8 / psy=1 / psy_rd=1.00:0.00 / mixed_ref=1 / me_range=16 / chroma_me=1 / trellis=1 / 8x8dct=1 / cqm=0 / deadzone=21,11 / fast_pskip=1 / chroma_qp_offset=-2 / threads=12 / sliced_threads=0 / nr=0 / decimate=1 / interlaced=0 / bluray_compat=0 / constrained_intra=0 / bframes=3 / b_pyramid=2 / b_adapt=2 / b_bias=0 / direct=3 / weightb=1 / open_gop=0 / weightp=2 / keyint=240 / keyint_min=24 / scenecut=40 / intra_refresh=0 / rc_lookahead=50 / rc=2pass / mbtree=1 / bitrate=4180 / ratetol=1.0 / qcomp=0.60 / qpmin=0 / qpmax=69 / qpstep=4 / cplxblur=20.0 / qblur=0.5 / ip_ratio=1.40 / aq=1:1.00
Language                         : English

Audio
ID                               : 2
Format                           : DTS
Format/Info                      : Digital Theater Systems
Codec ID                         : A_DTS
Duration                         : 1h 49mn
Bit rate mode                    : Constant
Bit rate                         : 1 510 Kbps
Channel(s)                       : 6 channels
Channel positions                : Front: L C R, Side: L R, LFE
Sampling rate                    : 48.0 KHz
Bit depth                        : 24 bits
Compression mode                 : Lossy
Stream size                      : 1.16 GiB (27%)
Language                         : English

Text
ID                               : 3
Format                           : UTF-8
Codec ID                         : S_TEXT/UTF8
Codec ID/Info                    : UTF-8 Plain Text
Language                         : English
"
[T],Filmofiel,2011-08-03T21:19Z,"You selected: EN / FR / SP / PT / IT /
                DE / NL / SW / NO / FIN /JA

So where are they?"
[V],DownTYU,2011-08-03T22:38Z,"Upthere in the texted langs I only selected English...

In the description I copied from the NFO."
[T],Filmofiel,2011-08-03T23:02Z,"Yeah right even in the NFO there where all these languages selected. As i understand u have chosen only the english text, that's ok. But next time write it down that u only have chosen 1 language, in your info above u misguides all downloaders. I have found a dutch sub which belongs to this movie at www.subtitlesnl.com. This one is not perfect, it has typo's and a few lines missing. For the rest a brilliant torrent, ty for that :) 

Btw there is a brilliant tool to merge all translations into this movie, i did it with mkvmerge, works fantastic."
,rajka71,2011-08-04T08:27Z,"thanks, a movie for my personal collections, and very stylish movie, better if you can add both DTS & AC3 audio's in your future release"
